<?xml version="1.0" encoding="utf-8"?>
<!-- Generator: Adobe Illustrator 18.0.0, SVG Export Plug-In . SVG Version: 6.00 Build 0)  -->
<svg version="1.0" xmlns="http://www.w3.org/2000/svg" xmlns:xlink="http://www.w3.org/1999/xlink" x="0px" y="0px"
	 viewBox="0 0 200 200" enable-background="new 0 0 200 200" xml:space="preserve">
<g id="Layer_1">
</g>
<g id="Layer_2">
	<g id="Add_Favorite">
	</g>
	<g id="New_Symbol_17">
	</g>
	<g>
		<path opacity="0.85" d="M28.3,114.1c0,0,0-0.6,0-1.6c0-1.5-0.5-4-1.8-6.3c-0.5-0.8-10.7-18-11.7-20c-2.4-4.6-3.9-7-3.8-11.6
			c0.1-4.6,0-13.1,0-14.6c0-4,3.9-9.1,12.6-9.2c8.4,0,12.4,6.1,12.4,9.2l-0.1,15.1h-4c0-0.3,0-1.5,0-3c0-1.8,0-4.1,0-6
			c0-1.9,0-3.5,0-3.9c0-0.1,0-0.1,0-0.2c0-0.8-0.1-2.6-1.2-4.3c-1.1-1.7-3.2-3.1-6.9-3.1c-2.1,0-3.7,0.4-4.8,0.9
			c-1.8,0.8-2.6,2.2-3,3.4c-0.2,0.6-0.3,1.2-0.3,1.6c0,0.5,0,0.8,0,1c0,0.3,0,1.7,0,3.3c0,3.2,0,7.6,0,7.8c0,0,0,0.3,0,0.8
			c0,0.5,0,1.3,0,2c0,0.7,0.1,1.5,0.2,2c0.4,2.1,1.9,4.8,1.9,4.9l0,0l0,0c0,0,11.3,18.6,13.3,21.8c1.9,3.1,1.7,5.3,1.8,7.5
			c0,1.1,0.1,2.7,0.1,2.7c0,0,0,0.7,0,1.8c0,1.8,0,4.7,0,7.2c0,1.3,0,2.4,0,3.3c0,0.9,0,1.5,0,1.7c0,0.5-0.2,2.2-1.4,3.8
			c-1.2,1.6-3.4,3.1-7.7,3.1c-2.2,0-3.7-0.4-4.9-0.9c-1.7-0.8-2.6-2.1-3-3.2c-0.2-0.6-0.3-1.1-0.4-1.5c-0.1-0.4-0.1-0.8-0.1-0.9
			c0-0.2,0-2,0-4.2c0-2.2,0-4.8,0-6.9c0-1.6,0-2.9,0-3.4h4.3c0,0-0.1,11.9,0,12.8c0.1,0.9-0.1,4.2,4.2,4.2c3.9,0,4.5-3.1,4.5-4.2
			c0-1.1,0-9.4,0-9.4V114.1z"/>
		<polygon opacity="0.85" points="190,135.8 190,139.4 166.2,139.4 166.2,51 189.9,51 189.9,54.5 170.3,54.5 170.3,135.8 		"/>
		<polygon opacity="0.6" points="190,131.1 190,134.9 171.1,134.9 171.1,94.3 187.6,94.3 187.6,97.9 175.5,97.9 175.5,131.1 		"/>
		<polygon opacity="0.6" points="189.9,55.4 189.9,59.1 175.5,59.1 175.5,89.4 187.6,89.4 187.6,93.4 171.1,93.4 171.1,55.4 		"/>
		<polygon opacity="0.6" points="157.7,55.4 157.7,59 147.3,59 147.3,139.4 142.8,139.4 142.8,55.4 		"/>
		<rect x="126.7" y="51" opacity="0.85" width="31" height="3.5"/>
		<polygon opacity="0.85" points="142.3,139.4 137.2,139.4 137.2,59 126.7,59 126.7,55.4 141.9,55.4 141.9,139.3 		"/>
		<polygon opacity="0.85" points="68.9,135.5 68.9,139.4 45.7,139.4 45.7,51 50.1,51 50.1,135.5 		"/>
		<polygon opacity="0.6" points="68.9,131.1 68.9,134.6 51,134.6 51,51 55.5,51 55.5,131.1 		"/>
		<path opacity="0.6" d="M14.6,130.1c0.2,1.1,0.8,2.6,2.2,3.8c1.4,1.2,3.6,2.1,7,2.1h0c4.5,0,7-1.6,8.4-3.4c1.3-1.8,1.5-3.7,1.6-4.2
			c0-0.2,0-0.8,0-1.8c0-2.7,0-7.8,0-10.5c0-1.1,0-1.8,0-1.8c0,0,0-1.6-0.1-2.7c-0.1-2.1,0.1-4.7-1.9-8c-1-1.6-4.3-7-7.4-12.1
			c-1.5-2.5-3-4.9-4.1-6.7c-1-1.7-1.7-2.8-1.8-2.9c0,0-0.1-0.2-0.2-0.4c-0.4-0.9-1.3-2.8-1.6-4.2c-0.1-0.4-0.1-1.1-0.2-1.8
			c0-0.7,0-1.5,0-2c0-0.5,0-0.8,0-0.8v0c0,0,0-1.1,0-2.7c0-1.5,0-3.5,0-5.1c0-1.6,0-3,0-3.3c0-0.3,0-0.8,0.1-1.4
			c0.1-0.9,0.5-2.1,1.5-3c1-0.9,2.7-1.7,5.7-1.7c3.5,0,5.2,1.3,6.2,2.7c0.9,1.4,1,3.1,1,3.8c0,0.1,0,0.1,0,0.2c0,0.4,0,2,0,3.9
			c0,3.6,0,8.4,0,9.1h-4.2V63.8c0,0,0-3.8-3.2-3.8c-2.9,0-2.6,4.1-2.6,4.1v9.2c0,0-0.1,2,0.8,4.4c0.7,2,2.6,4.8,2.9,5.3
			c0.2,0.4,9.2,16.2,11.2,19.8c2,3.6,1.8,6,1.8,8.4c0,1.2,0,8.2,0,17.9c0,6.1-5.3,10.6-14.2,10.6c-9.4,0-13.6-5.2-13.5-11.4
			c0-4.9,0-14.2,0-14.2h4.4c0,1.1,0,6.4,0,10.3c0,2.2,0,3.9,0,4.2C14.4,128.8,14.5,129.4,14.6,130.1z"/>
		<g>
			<path opacity="0.85" d="M126.9,141l0,0.1l0.6-0.1c0,0.4-0.3,0.8-0.7,0.9c0,0-0.1-0.5-0.2-0.9L126.9,141z"/>
			<ellipse opacity="0.85" cx="128.5" cy="110.2" rx="0.7" ry="1.7"/>
			<path opacity="0.85" d="M127.4,110.3c0,1.1,0.5,1.6,0.5,1.6h-2.8c0,0-0.6-0.4-0.6-1.7c0-1.2,0.6-1.7,0.6-1.7h2.7
				C127.9,108.5,127.4,109,127.4,110.3z"/>
			<path opacity="0.85" d="M126.6,140.2c0.5-0.1,0.9,0.2,1,0.7l-0.6,0.1l-0.2,0C126.6,140.6,126.6,140.2,126.6,140.2z"/>
			<path opacity="0.85" d="M124.9,137.2c0.5-0.1,0.9,0.3,1,0.7l1,6.3c0.1,0.5-0.3,0.9-0.7,1c-0.5,0.1-0.9-0.3-1-0.7l-1-6.3
				C124.1,137.7,124.4,137.3,124.9,137.2z"/>
			<path opacity="0.85" d="M123.7,110.1c0,1.3,0.6,1.7,0.6,1.7h-6.1l5.4,29l0.6-0.1l0.2,1.3l-0.6,0.1l2.1,13.7l-1.8,7.2l-0.8,3.7
				l-2.2,0c0,0-0.4-2-1.1-5.1c2.5-0.3,4.5-2.5,4.5-5.1c0-1.8-0.9-3.4-2.3-4.3l0.1,0l-17.2-92c0.2-0.6,0.3-1.2,0.3-1.8
				c0-2.5-1.8-4.5-4.1-5l1.2-7.9h3.5l11.7,62.9h6.6C124.3,108.5,123.7,109,123.7,110.1z"/>
			<polygon opacity="0.85" points="122.8,167.2 122.6,168.4 121.4,168.4 121.2,167.2 			"/>
			<polygon opacity="0.85" points="122.3,168.7 121.4,170.5 121.4,168.7 			"/>
			<circle opacity="0.85" cx="119.4" cy="156.6" r="4"/>
			<path opacity="0.6" d="M118,151.7c-3.2-15.2-7.6-36.6-7.9-38.1c0,0-0.1-0.8-0.3-1.3c-0.1-0.6-0.9-0.5-0.9-0.5h-6.7v-3.4h6.9
				l-7.9-45c1.3-0.2,2.5-1,3.2-2l16.9,90.4c-0.6-0.2-1.2-0.4-1.9-0.4C118.9,151.5,118.4,151.6,118,151.7z"/>
			<polygon opacity="0.85" points="103.6,43.7 104.1,44.8 102.1,44.8 100.8,52.6 100.2,52.6 99.3,44.9 96.9,44.9 97.3,43.7 			"/>
			<path opacity="0.85" d="M103.5,55.8c1.3,1.6,1.2,4-0.3,5.5c-1.5,1.5-3.9,1.6-5.5,0.3L103.5,55.8z"/>
			<rect x="98.1" y="42.3" opacity="0.85" width="4.8" height="1"/>
			<path opacity="0.85" d="M100.4,29.4c1.8,0,2.5,0.9,2.5,0.9l-0.3,4.1c0,0-0.5-0.9-2.2-0.9c-1.8,0-2.2,0.7-2.2,0.7l-0.3-4
				C98,30.2,98.6,29.4,100.4,29.4z"/>
			<path opacity="0.85" d="M102.1,34.6v7.2h-3.4v-7.2c0,0,0.3-0.5,1.7-0.5C101.9,34.1,102.1,34.6,102.1,34.6z"/>
			<path opacity="0.85" d="M100.6,121.3c-0.5,0-0.9-0.4-0.9-0.9V99.3c0-0.5,0.4-0.9,0.9-0.9c0.5,0,0.9,0.4,0.9,0.9v21.1
				C101.4,120.9,101.1,121.3,100.6,121.3z"/>
			<path opacity="0.85" d="M103.1,55.3l-5.8,5.8c-1.4-1.6-1.3-4.1,0.2-5.6C99,54,101.5,53.9,103.1,55.3z"/>
			<path opacity="0.6" d="M91.3,112.3c-0.2,0.2-0.4,1.1-0.5,1.5c0-0.1,0-0.1,0-0.2c0-0.1,0-0.1,0-0.1c-0.1,0.1-4.8,22.5-8.1,38.3
				c-0.6-0.2-1.1-0.3-1.8-0.3c-0.5,0-1,0.1-1.5,0.2l16.9-90c0.8,0.9,1.9,1.6,3.1,1.8l-7.5,45h6.9v3.3h-6.6
				C92.2,111.8,91.7,111.9,91.3,112.3z"/>
			<path opacity="0.85" d="M90.8,114C90.8,114,90.8,114,90.8,114C90.8,114,90.8,114,90.8,114z"/>
			<circle opacity="0.85" cx="81.1" cy="156.6" r="4"/>
			<path opacity="0.85" d="M75.9,156.6c0,2.7,2.1,4.9,4.8,5.1c-0.7,3.2-1.1,5.2-1.1,5.2l-2,0l-1.1-3.8l-2.2-7.1l8.2-44.1H75
				c0,0-0.5-0.3-0.6-1.7c0-1.4,0.8-1.6,0.8-1.6h8.2l11.4-63h3.8l1.2,7.8c-2.5,0.3-4.5,2.5-4.5,5.1c0,0.8,0.2,1.5,0.5,2.1l-17.2,91.6
				C77,153,75.9,154.7,75.9,156.6z"/>
			<polygon opacity="0.85" points="79.5,169.6 79.5,170.6 77.8,167.3 79.5,167.4 			"/>
			<path opacity="0.85" d="M71.4,108.6h2.8c0,0-0.6,0.4-0.6,1.6c0,1.2,0.5,1.8,0.5,1.8h-2.7c0,0-0.6-0.4-0.6-1.7
				C70.8,109,71.4,108.6,71.4,108.6z"/>
			<g opacity="0.85">
				<path d="M90.8,114C90.8,114,90.8,114,90.8,114"/>
			</g>
		</g>
	</g>
</g>
</svg>
